<svg width="18" height="13" viewBox="0 0 18 13" fill="none" xmlns="http://www.w3.org/2000/svg">
<g clip-path="url(#clip0_1397_5196)">
<path d="M9 7.95223C8.82755 7.95223 8.65509 7.91431 8.49713 7.83846L0.635318 4.04079C0.243504 3.85117 0 3.46721 0 3.03787V1.11736C0 0.50112 0.510462 0 1.13819 0H16.8618C17.4895 0 18 0.50112 18 1.11736V3.03787C18 3.46653 17.7565 3.85117 17.3647 4.04011L9.50287 7.83779C9.3456 7.91363 9.17314 7.95155 9.00069 7.95155L9 7.95223ZM1.72453 2.67964L9 6.19425L16.2755 2.67964V1.69297H1.72453V2.67964Z" fill="#1E1E1E"/>
<path d="M16.9653 13.0003H1.03472C0.463555 13.0003 0 12.5453 0 11.9845V5.55463C0 5.25532 0.318694 5.05893 0.59324 5.18827L1.49 5.61219C1.63348 5.67991 1.72453 5.82212 1.72453 5.97855V11.3067H16.2755V5.97855C16.2755 5.8228 16.3665 5.67991 16.51 5.61219L17.4068 5.18827C17.6813 5.05825 18 5.25464 18 5.55463V11.9845C18 12.5453 17.5364 13.0003 16.9653 13.0003Z" fill="#1E1E1E"/>
</g>
<defs>
<clipPath id="clip0_1397_5196">
<rect width="18" height="13" fill="white"/>
</clipPath>
</defs>
</svg>
