<svg width="19" height="20" viewBox="0 0 19 20" fill="none" xmlns="http://www.w3.org/2000/svg">
<path d="M0 2.95707C0 2.31733 0.21397 1.78955 0.641892 1.37374C1.06981 0.957906 1.62613 0.75 2.31081 0.75C2.98327 0.75 3.52734 0.954701 3.94305 1.36414C4.37097 1.78636 4.58494 2.33652 4.58494 3.01465C4.58494 3.62879 4.3771 4.14056 3.96139 4.55C3.53347 4.97222 2.97104 5.18333 2.27413 5.18333H2.25579C1.58333 5.18333 1.03926 4.97222 0.623552 4.55C0.207845 4.12778 0 3.59679 0 2.95707ZM0.238417 19.75V6.9298H4.30985V19.75H0.238417ZM6.56564 19.75H10.6371V12.5914C10.6371 12.1436 10.686 11.7981 10.7838 11.555C10.9549 11.12 11.2148 10.7522 11.5632 10.4515C11.9117 10.1508 12.3488 10.0005 12.8745 10.0005C14.2439 10.0005 14.9286 10.9665 14.9286 12.8985V19.75H19V12.3995C19 10.5059 18.5721 9.0697 17.7162 8.09091C16.8604 7.11212 15.7294 6.62273 14.3234 6.62273C12.7461 6.62273 11.5174 7.33283 10.6371 8.75303V8.79141H10.6187L10.6371 8.75303V6.9298H6.56564C6.59008 7.33922 6.60232 8.61228 6.60232 10.749C6.60232 12.8857 6.59008 15.886 6.56564 19.75Z" fill="#1E1E1E"/>
</svg>
