<svg width="18" height="19" viewBox="0 0 18 19" fill="none" xmlns="http://www.w3.org/2000/svg">
<g clip-path="url(#clip0_801_77)">
<path d="M9.00036 2.37159C11.4036 2.37159 11.688 2.38087 12.6372 2.4241C13.5146 2.46412 13.9912 2.61059 14.3085 2.73384C14.7286 2.89711 15.0283 3.09217 15.3434 3.40691C15.6585 3.72201 15.8536 4.02175 16.0165 4.44189C16.1398 4.75913 16.2862 5.23571 16.3263 6.11313C16.3695 7.062 16.3788 7.34674 16.3788 9.75C16.3788 12.1533 16.3695 12.4376 16.3263 13.3869C16.2862 14.2643 16.1398 14.7409 16.0165 15.0581C15.8532 15.4782 15.6582 15.778 15.3434 16.0931C15.0283 16.4082 14.7286 16.6032 14.3085 16.7662C13.9912 16.8894 13.5146 17.0359 12.6372 17.0759C11.6884 17.1191 11.4036 17.1284 9.00036 17.1284C6.5971 17.1284 6.31236 17.1191 5.36349 17.0759C4.48607 17.0359 4.00949 16.8894 3.69224 16.7662C3.27211 16.6029 2.97237 16.4078 2.65727 16.0931C2.34217 15.778 2.14711 15.4782 1.9842 15.0581C1.86095 14.7409 1.71447 14.2643 1.67446 13.3869C1.63123 12.438 1.62194 12.1533 1.62194 9.75C1.62194 7.34674 1.63123 7.06236 1.67446 6.11313C1.71447 5.23571 1.86095 4.75913 1.9842 4.44189C2.14747 4.02175 2.34253 3.72201 2.65727 3.40691C2.97202 3.09181 3.27211 2.89675 3.69224 2.73384C4.00949 2.61059 4.48607 2.46412 5.36349 2.4241C6.31236 2.38087 6.5971 2.37159 9.00036 2.37159ZM9.00036 0.75C6.55601 0.75 6.24948 0.76036 5.28954 0.804303C4.33173 0.847888 3.67724 1.00008 3.10491 1.22265C2.51294 1.45272 2.011 1.76032 1.51084 2.26084C1.01032 2.76135 0.702723 3.26294 0.47265 3.85491C0.250079 4.42724 0.0978882 5.08173 0.054303 6.03954C0.0103604 6.99948 0 7.30601 0 9.75036C0 12.1947 0.0103604 12.5012 0.054303 13.4612C0.0978882 14.419 0.250079 15.0735 0.47265 15.6458C0.702723 16.2378 1.01032 16.7397 1.51084 17.2399C2.01135 17.7404 2.51294 18.048 3.10491 18.2781C3.67724 18.5006 4.33173 18.6528 5.28954 18.6964C6.24948 18.7404 6.55601 18.7507 9.00036 18.7507C11.4447 18.7507 11.7512 18.7404 12.7112 18.6964C13.669 18.6528 14.3235 18.5006 14.8958 18.2781C15.4878 18.048 15.9897 17.7404 16.4899 17.2399C16.9904 16.7394 17.298 16.2378 17.5281 15.6458C17.7506 15.0735 17.9028 14.419 17.9464 13.4612C17.9904 12.5012 18.0007 12.1947 18.0007 9.75036C18.0007 7.30601 17.9904 6.99948 17.9464 6.03954C17.9028 5.08173 17.7506 4.42724 17.5281 3.85491C17.298 3.26294 16.9904 2.761 16.4899 2.26084C15.9894 1.76032 15.4878 1.45272 14.8958 1.22265C14.3235 1.00008 13.669 0.847888 12.7112 0.804303C11.7512 0.76036 11.4447 0.75 9.00036 0.75Z" fill="#1E1E1E"/>
<path d="M9.00037 5.12891C6.44778 5.12891 4.37891 7.19813 4.37891 9.75037C4.37891 12.3026 6.44813 14.3718 9.00037 14.3718C11.5526 14.3718 13.6218 12.3026 13.6218 9.75037C13.6218 7.19813 11.5526 5.12891 9.00037 5.12891ZM9.00037 12.7503C7.34342 12.7503 6.00049 11.407 6.00049 9.75037C6.00049 8.09378 7.34378 6.75049 9.00037 6.75049C10.657 6.75049 12.0003 8.09378 12.0003 9.75037C12.0003 11.407 10.657 12.7503 9.00037 12.7503Z" fill="#1E1E1E"/>
<path d="M13.8026 6.02716C14.3991 6.02716 14.8826 5.54363 14.8826 4.94717C14.8826 4.35071 14.3991 3.86719 13.8026 3.86719C13.2062 3.86719 12.7227 4.35071 12.7227 4.94717C12.7227 5.54363 13.2062 6.02716 13.8026 6.02716Z" fill="#1E1E1E"/>
</g>
<defs>
<clipPath id="clip0_801_77">
<rect width="18" height="18" fill="white" transform="translate(0 0.75)"/>
</clipPath>
</defs>
</svg>
