<svg width="18" height="18" viewBox="0 0 18 18" fill="none" xmlns="http://www.w3.org/2000/svg">
<g clip-path="url(#clip0_1397_5193)">
<path fill-rule="evenodd" clip-rule="evenodd" d="M9.16299 0C4.28326 0 0.326997 3.92567 0.326997 8.76867C0.326997 10.4251 0.790244 11.9743 1.59462 13.2962L0 18L4.89184 16.4458C6.15744 17.1398 7.61379 17.5363 9.16299 17.5363C14.0437 17.5363 18 13.6107 18 8.76766C18 3.92467 14.0437 0 9.16299 0ZM9.16299 16.0672C7.6693 16.0672 6.27754 15.6226 5.1159 14.8605L2.28898 15.7588L3.2074 13.0478C2.32632 11.8441 1.80656 10.366 1.80656 8.76766C1.80757 4.74285 5.10681 1.46812 9.16299 1.46812C13.2192 1.46812 16.5194 4.74285 16.5194 8.76766C16.5194 12.7925 13.2192 16.0672 9.16299 16.0672ZM13.306 10.7605C13.0839 10.6404 11.996 10.0575 11.7921 9.97541C11.5882 9.89329 11.4389 9.85023 11.2804 10.0685C11.122 10.2869 10.6698 10.7746 10.5336 10.9188C10.3963 11.063 10.2641 11.077 10.0421 10.9558C9.82103 10.8357 9.10345 10.5723 8.26981 9.77812C7.62187 9.16023 7.19697 8.41015 7.07384 8.18182C6.95071 7.95249 7.07384 7.83632 7.18991 7.72916C7.29487 7.63202 7.42506 7.4758 7.54314 7.34962C7.66022 7.22343 7.7016 7.1313 7.78234 6.98509C7.86308 6.83888 7.83078 6.70669 7.7783 6.59252C7.72582 6.47836 7.31606 5.36074 7.1455 4.90508C6.97494 4.45043 6.78419 4.51753 6.65198 4.51252C6.52077 4.50851 6.3704 4.48348 6.22002 4.47847C6.06964 4.47246 5.82338 4.51953 5.60841 4.73584C5.39344 4.95215 4.78991 5.4719 4.74853 6.57349C4.70715 7.67408 5.47519 8.76867 5.58217 8.92189C5.68915 9.07511 7.04861 11.4626 9.30732 12.444C11.567 13.4254 11.5781 13.126 11.9929 13.1039C12.4077 13.0819 13.3473 12.6122 13.5553 12.0965C13.7632 11.5807 13.7793 11.1331 13.7268 11.0379C13.6743 10.9428 13.526 10.8807 13.305 10.7605H13.306Z" fill="#1E1E1E"/>
</g>
<defs>
<clipPath id="clip0_1397_5193">
<rect width="18" height="18" fill="white"/>
</clipPath>
</defs>
</svg>
