<svg width="24" height="18" viewBox="0 0 24 18" fill="none" xmlns="http://www.w3.org/2000/svg">
<path d="M12.5317 17.7277L7.60784 17.6355C6.0136 17.6034 4.41539 17.6675 2.85241 17.3346C0.474754 16.8372 0.306312 14.3985 0.130056 12.3528C-0.112807 9.47687 -0.0187875 6.54873 0.439526 3.6968C0.69826 2.09656 1.71648 1.14169 3.29112 1.03778C8.6067 0.660684 13.9576 0.705374 19.2614 0.881304C19.8216 0.897432 20.3856 0.985581 20.9379 1.08592C23.6643 1.5753 23.7308 4.33896 23.9076 6.66544C24.0838 9.01594 24.0094 11.3785 23.6725 13.713C23.4022 15.6459 22.8851 17.2668 20.7028 17.4233C17.9686 17.6279 15.2971 17.7926 12.5552 17.7402C12.5553 17.7277 12.5395 17.7277 12.5317 17.7277ZM9.63694 12.8342C11.6974 11.6228 13.7186 10.4315 15.7673 9.22819C13.703 8.01674 11.6857 6.82549 9.63694 5.62218V12.8342Z" fill="#1E1E1E"/>
</svg>
